<?xml version="1.0" encoding="UTF-8" standalone="no"?>
<!-- Generator: Gravit.io -->
<svg xmlns="http://www.w3.org/2000/svg" xmlns:xlink="http://www.w3.org/1999/xlink" style="isolation:isolate" viewBox="259.316 1813.1 61.684 49.057" width="61.684" height="49.057"><path d=" M 290.158 1813.1 C 273.087 1813.1 259.316 1826.871 259.316 1843.942 C 259.316 1850.832 261.762 1857.087 265.484 1862.157 L 270.4 1858.496 C 267.341 1854.314 265.484 1849.388 265.484 1843.942 C 265.484 1830.171 276.387 1819.268 290.158 1819.268 C 303.929 1819.268 314.832 1830.171 314.832 1843.942 C 314.832 1849.388 312.975 1854.314 309.915 1858.496 L 314.832 1862.157 C 318.554 1857.087 321 1850.832 321 1843.942 C 321 1826.871 307.229 1813.1 290.158 1813.1 Z  M 301.532 1828.231 L 290.639 1839.124 C 290.472 1839.112 290.328 1839.026 290.158 1839.026 C 288.853 1839.022 287.601 1839.539 286.678 1840.462 C 285.755 1841.384 285.238 1842.637 285.242 1843.942 C 285.238 1845.247 285.755 1846.499 286.678 1847.422 C 287.601 1848.344 288.853 1848.861 290.158 1848.858 C 291.463 1848.861 292.715 1848.344 293.638 1847.422 C 294.561 1846.499 295.077 1845.247 295.074 1843.942 C 295.074 1843.772 294.988 1843.627 294.979 1843.461 L 305.866 1832.57 L 301.532 1828.231 Z " fill="rgb(255,255,255)"/></svg>